PathFileType	4	(X/Y/Z)	Kaydara	
DataRate	CameraRate	NumFrames	NumMarkers	Units	OrigDataRate	OrigDataStartFrame	OrigNumFrames	
30.00	30.00	4	28	mm	30.00	64	126	
Frame#	Time	reference			Hips			Spine			Spine1			Neck			Head			Head_End			LeftShoulder			LeftArm			LeftForeArm			LeftHand			LeftHand_End			RightShoulder			RightArm			RightForeArm			RightHand			RightHand_End			LeftUpLeg			LeftLeg			LeftFoot			LeftFoot_End			RightUpLeg			RightLeg			RightFoot			RightFoot_End			Tail			Tail1			Tail1_End			
		X1	Y1	Z1	X2	Y2	Z2	X3	Y3	Z3	X4	Y4	Z4	X5	Y5	Z5	X6	Y6	Z6	X7	Y7	Z7	X8	Y8	Z8	X9	Y9	Z9	X10	Y10	Z10	X11	Y11	Z11	X12	Y12	Z12	X13	Y13	Z13	X14	Y14	Z14	X15	Y15	Z15	X16	Y16	Z16	X17	Y17	Z17	X18	Y18	Z18	X19	Y19	Z19	X20	Y20	Z20	X21	Y21	Z21	X22	Y22	Z22	X23	Y23	Z23	X24	Y24	Z24	X25	Y25	Z25	X26	Y26	Z26	X27	Y27	Z27	X28	Y28	Z28	

64	2.100	0.00000	0.00000	0.00000	146.77882	-45.91091	473.79498	146.77887	-45.91096	473.79501	148.65006	-235.05779	455.90715	162.97116	-458.90430	437.23593	147.81013	-597.62701	448.46963	125.64504	-759.62533	401.93732	207.94523	-427.76813	413.85033	257.24032	-466.99907	364.54599	269.18393	-345.92379	273.43014	223.25512	-370.20441	103.18040	207.68963	-345.36386	37.41827	122.83742	-432.25315	402.33708	84.16579	-474.34860	346.34732	72.30112	-374.97485	231.94404	120.40541	-443.96404	75.06685	142.39394	-486.78154	21.52096	207.74729	-2.15885	395.56648	249.36856	-123.97945	300.55399	230.44590	-53.29740	136.09730	232.75859	-93.10242	35.72693	112.90794	4.93209	384.24698	114.29603	-90.04739	255.49547	139.63982	25.91140	120.17647	154.87029	18.77432	13.49425	153.74901	20.37003	456.91564	168.36462	76.22542	351.71801	178.37673	131.97933	245.92928 
65	2.133	0.00000	0.00000	0.00000	146.13297	-51.60435	473.91125	146.13303	-51.60440	473.91128	148.58249	-240.65600	455.10988	162.37152	-464.59461	437.15645	146.80491	-603.15582	449.74681	124.76901	-765.45469	404.21117	207.38495	-433.63768	413.60918	256.43535	-474.19657	365.14243	268.64377	-354.82228	271.84341	221.25090	-391.90790	104.32461	206.82805	-364.08699	39.50197	122.25199	-437.96729	402.22309	83.74108	-479.45517	345.67187	71.51872	-378.15315	233.01070	120.35896	-444.36027	75.16510	142.54225	-486.82959	21.42262	207.21406	-7.66476	395.87594	248.35656	-129.65932	300.87813	229.29279	-72.79600	131.16320	230.24983	-115.72717	32.06730	112.39223	-0.39645	384.52219	113.68528	-93.19432	254.18853	139.49086	24.84633	120.77019	154.91029	18.88589	14.04289	153.20972	14.72561	457.27047	166.71196	70.28953	351.77013	175.20142	125.43049	245.52795 
66	2.167	0.00000	0.00000	0.00000	145.68648	-56.92535	473.80539	145.68654	-56.92540	473.80542	149.49885	-245.92557	454.71609	161.97685	-469.95917	436.99008	146.24505	-608.39132	450.74129	123.97441	-771.01767	406.50681	207.04241	-439.27911	413.18159	255.77999	-481.38444	365.72868	268.48508	-364.40605	269.50701	217.91339	-414.09079	106.23451	204.68283	-385.68080	41.41306	121.83218	-443.15805	402.21887	83.38635	-484.12136	345.24256	71.23771	-381.16632	234.08189	120.13378	-444.67829	75.14987	142.51062	-486.82561	21.23442	206.75365	-12.93699	395.78668	247.29622	-135.10203	300.75002	228.38848	-91.04740	127.25159	227.64354	-136.67605	29.36660	111.93167	-5.47098	384.56330	112.91105	-96.30225	252.84884	139.38870	23.63429	121.26564	154.85233	18.54608	14.49960	152.86511	9.42572	457.29292	165.41178	64.65455	351.49907	172.61041	119.10498	244.80639 
67	2.200	0.00000	0.00000	0.00000	145.57193	-61.82691	473.42926	145.57198	-61.82696	473.42929	150.32029	-250.75567	453.84879	161.99008	-474.89637	436.94527	146.12362	-613.16236	452.13796	122.85902	-775.44853	407.17180	206.94890	-444.44903	412.64138	255.31903	-488.02391	366.14889	269.02039	-373.93533	266.64994	214.30739	-436.57303	109.27465	200.89189	-408.95498	44.14967	121.64035	-448.11820	402.39445	83.01711	-488.40627	345.05781	71.13592	-384.04221	235.18970	120.19683	-445.43787	75.47876	142.54449	-487.02398	21.11725	206.55240	-17.85413	395.33399	246.38948	-140.36723	300.44717	227.76777	-107.30053	124.49307	226.28464	-154.61838	27.42185	111.71994	-10.23660	384.30254	112.24478	-99.21619	251.32759	139.08824	22.61379	121.57065	154.71573	18.45480	14.78823	152.81699	4.52930	456.96654	164.42209	59.22049	350.78662	170.40020	113.05704	243.70774 
